<mxfile host="app.diagrams.net" modified="2022-03-16T12:46:47.025Z" agent="5.0 (Macintosh; Intel Mac OS X 10_15_7) AppleWebKit/537.36 (KHTML, like Gecko) Chrome/99.0.4844.51 Safari/537.36" etag="0xkxCXuwOrFrZLWjiw_n" version="17.1.2" type="github">
  <diagram id="tSGG9kwhMNB_0e-GcAUV" name="第 1 页">
    <mxGraphModel dx="1731" dy="2766" grid="1" gridSize="10" guides="1" tooltips="1" connect="1" arrows="1" fold="1" page="1" pageScale="1" pageWidth="2336" pageHeight="1654" math="0" shadow="0">
      <root>
        <mxCell id="0" />
        <mxCell id="1" parent="0" />
        <mxCell id="1NMRpeNYo86zTvfl2Am6-1" value="&lt;br&gt;产品" style="shape=actor;whiteSpace=wrap;html=1;" vertex="1" parent="1">
          <mxGeometry x="350" y="130" width="40" height="60" as="geometry" />
        </mxCell>
        <mxCell id="1NMRpeNYo86zTvfl2Am6-2" value="&lt;br&gt;开发" style="shape=actor;whiteSpace=wrap;html=1;" vertex="1" parent="1">
          <mxGeometry x="790" y="130" width="40" height="60" as="geometry" />
        </mxCell>
        <mxCell id="1NMRpeNYo86zTvfl2Am6-3" value="&lt;br&gt;测试" style="shape=actor;whiteSpace=wrap;html=1;" vertex="1" parent="1">
          <mxGeometry x="1220" y="130" width="40" height="60" as="geometry" />
        </mxCell>
        <mxCell id="1NMRpeNYo86zTvfl2Am6-4" value="&lt;br&gt;UI" style="shape=actor;whiteSpace=wrap;html=1;" vertex="1" parent="1">
          <mxGeometry x="180" y="130" width="40" height="60" as="geometry" />
        </mxCell>
        <mxCell id="1NMRpeNYo86zTvfl2Am6-6" value="" style="shape=flexArrow;endArrow=classic;html=1;rounded=0;endWidth=10;endSize=7.17;entryX=0.75;entryY=0;entryDx=0;entryDy=0;" edge="1" parent="1" target="1NMRpeNYo86zTvfl2Am6-12">
          <mxGeometry width="50" height="50" relative="1" as="geometry">
            <mxPoint x="399" y="280" as="sourcePoint" />
            <mxPoint x="234.53999999999996" y="246.2840000000001" as="targetPoint" />
            <Array as="points" />
          </mxGeometry>
        </mxCell>
        <mxCell id="1NMRpeNYo86zTvfl2Am6-7" value="" style="shape=flexArrow;endArrow=classic;html=1;rounded=0;endWidth=10;endSize=7.17;entryX=0.25;entryY=0;entryDx=0;entryDy=0;" edge="1" parent="1" target="1NMRpeNYo86zTvfl2Am6-12">
          <mxGeometry width="50" height="50" relative="1" as="geometry">
            <mxPoint x="340" y="280" as="sourcePoint" />
            <mxPoint x="340" y="380" as="targetPoint" />
            <Array as="points" />
          </mxGeometry>
        </mxCell>
        <mxCell id="1NMRpeNYo86zTvfl2Am6-8" value="提取需求&lt;br&gt;" style="text;html=1;strokeColor=none;fillColor=none;align=center;verticalAlign=middle;whiteSpace=wrap;rounded=0;" vertex="1" parent="1">
          <mxGeometry x="260" y="310" width="60" height="30" as="geometry" />
        </mxCell>
        <mxCell id="1NMRpeNYo86zTvfl2Am6-9" value="" style="edgeStyle=orthogonalEdgeStyle;rounded=0;orthogonalLoop=1;jettySize=auto;html=1;" edge="1" parent="1" target="1NMRpeNYo86zTvfl2Am6-10" source="1NMRpeNYo86zTvfl2Am6-12">
          <mxGeometry relative="1" as="geometry">
            <mxPoint x="370" y="438" as="sourcePoint" />
          </mxGeometry>
        </mxCell>
        <mxCell id="1NMRpeNYo86zTvfl2Am6-35" value="" style="edgeStyle=orthogonalEdgeStyle;rounded=0;orthogonalLoop=1;jettySize=auto;html=1;" edge="1" parent="1" source="1NMRpeNYo86zTvfl2Am6-10" target="1NMRpeNYo86zTvfl2Am6-34">
          <mxGeometry relative="1" as="geometry" />
        </mxCell>
        <mxCell id="1NMRpeNYo86zTvfl2Am6-10" value="&lt;div class=&quot;okr-block-clipboard&quot;&gt;&lt;/div&gt;&lt;div&gt;&lt;div&gt;&lt;div&gt;完善需求，prd,mrd，原型图。&lt;/div&gt;&lt;div&gt;并行UI出设计稿&lt;/div&gt;&lt;/div&gt;&lt;/div&gt;" style="rounded=1;whiteSpace=wrap;html=1;" vertex="1" parent="1">
          <mxGeometry x="274.5" y="450" width="190" height="60" as="geometry" />
        </mxCell>
        <mxCell id="1NMRpeNYo86zTvfl2Am6-11" value="&lt;span&gt;需求池&lt;/span&gt;" style="strokeWidth=2;html=1;shape=mxgraph.flowchart.database;whiteSpace=wrap;" vertex="1" parent="1">
          <mxGeometry x="304.5" y="230" width="130" height="60" as="geometry" />
        </mxCell>
        <mxCell id="1NMRpeNYo86zTvfl2Am6-12" value="&lt;span&gt;创建计划&lt;/span&gt;" style="rounded=1;whiteSpace=wrap;html=1;" vertex="1" parent="1">
          <mxGeometry x="309.5" y="350" width="120" height="60" as="geometry" />
        </mxCell>
        <mxCell id="1NMRpeNYo86zTvfl2Am6-13" value="" style="shape=flexArrow;endArrow=classic;html=1;rounded=0;exitX=0.5;exitY=1;exitDx=0;exitDy=0;endWidth=10;endSize=7.17;entryX=0.5;entryY=0;entryDx=0;entryDy=0;" edge="1" parent="1" target="1NMRpeNYo86zTvfl2Am6-12">
          <mxGeometry width="50" height="50" relative="1" as="geometry">
            <mxPoint x="370" y="290" as="sourcePoint" />
            <mxPoint x="370" y="370" as="targetPoint" />
            <Array as="points" />
          </mxGeometry>
        </mxCell>
        <mxCell id="1NMRpeNYo86zTvfl2Am6-45" value="" style="edgeStyle=orthogonalEdgeStyle;rounded=0;orthogonalLoop=1;jettySize=auto;html=1;" edge="1" parent="1" source="1NMRpeNYo86zTvfl2Am6-14" target="1NMRpeNYo86zTvfl2Am6-15">
          <mxGeometry relative="1" as="geometry" />
        </mxCell>
        <mxCell id="1NMRpeNYo86zTvfl2Am6-14" value="&lt;span&gt;技术评审，拆分需求&lt;/span&gt;" style="rounded=1;whiteSpace=wrap;html=1;" vertex="1" parent="1">
          <mxGeometry x="590" y="640" width="120" height="60" as="geometry" />
        </mxCell>
        <mxCell id="1NMRpeNYo86zTvfl2Am6-44" value="" style="edgeStyle=orthogonalEdgeStyle;rounded=0;orthogonalLoop=1;jettySize=auto;html=1;" edge="1" parent="1" source="1NMRpeNYo86zTvfl2Am6-15" target="1NMRpeNYo86zTvfl2Am6-17">
          <mxGeometry relative="1" as="geometry" />
        </mxCell>
        <mxCell id="1NMRpeNYo86zTvfl2Am6-15" value="根据估时，优先级&lt;br&gt;拆分迭代" style="whiteSpace=wrap;html=1;fillColor=rgb(255, 255, 255);strokeColor=rgb(0, 0, 0);fontColor=rgb(0, 0, 0);rounded=1;" vertex="1" parent="1">
          <mxGeometry x="760" y="640" width="120" height="60" as="geometry" />
        </mxCell>
        <mxCell id="1NMRpeNYo86zTvfl2Am6-20" value="" style="edgeStyle=orthogonalEdgeStyle;rounded=0;orthogonalLoop=1;jettySize=auto;html=1;" edge="1" parent="1" source="1NMRpeNYo86zTvfl2Am6-17" target="1NMRpeNYo86zTvfl2Am6-19">
          <mxGeometry relative="1" as="geometry" />
        </mxCell>
        <mxCell id="1NMRpeNYo86zTvfl2Am6-17" value="开始研发" style="whiteSpace=wrap;html=1;fillColor=rgb(255, 255, 255);strokeColor=rgb(0, 0, 0);fontColor=rgb(0, 0, 0);rounded=1;" vertex="1" parent="1">
          <mxGeometry x="762.5" y="510" width="115" height="60" as="geometry" />
        </mxCell>
        <mxCell id="1NMRpeNYo86zTvfl2Am6-22" value="" style="edgeStyle=orthogonalEdgeStyle;rounded=0;orthogonalLoop=1;jettySize=auto;html=1;" edge="1" parent="1" source="1NMRpeNYo86zTvfl2Am6-19" target="1NMRpeNYo86zTvfl2Am6-21">
          <mxGeometry relative="1" as="geometry" />
        </mxCell>
        <mxCell id="1NMRpeNYo86zTvfl2Am6-19" value="提测" style="whiteSpace=wrap;html=1;fillColor=rgb(255, 255, 255);strokeColor=rgb(0, 0, 0);fontColor=rgb(0, 0, 0);rounded=1;" vertex="1" parent="1">
          <mxGeometry x="940" y="510" width="120" height="60" as="geometry" />
        </mxCell>
        <mxCell id="1NMRpeNYo86zTvfl2Am6-25" value="" style="edgeStyle=orthogonalEdgeStyle;rounded=0;orthogonalLoop=1;jettySize=auto;html=1;" edge="1" parent="1" source="1NMRpeNYo86zTvfl2Am6-21" target="1NMRpeNYo86zTvfl2Am6-24">
          <mxGeometry relative="1" as="geometry" />
        </mxCell>
        <mxCell id="1NMRpeNYo86zTvfl2Am6-21" value="准入测试通过" style="whiteSpace=wrap;html=1;fillColor=rgb(255, 255, 255);strokeColor=rgb(0, 0, 0);fontColor=rgb(0, 0, 0);rounded=1;" vertex="1" parent="1">
          <mxGeometry x="1180" y="510" width="120" height="60" as="geometry" />
        </mxCell>
        <mxCell id="1NMRpeNYo86zTvfl2Am6-23" value="准入测试" style="text;html=1;strokeColor=none;fillColor=none;align=center;verticalAlign=middle;whiteSpace=wrap;rounded=0;" vertex="1" parent="1">
          <mxGeometry x="1070" y="510" width="60" height="30" as="geometry" />
        </mxCell>
        <mxCell id="1NMRpeNYo86zTvfl2Am6-49" value="" style="edgeStyle=orthogonalEdgeStyle;rounded=0;orthogonalLoop=1;jettySize=auto;html=1;entryX=1;entryY=0.25;entryDx=0;entryDy=0;exitX=0;exitY=0.25;exitDx=0;exitDy=0;" edge="1" parent="1" source="1NMRpeNYo86zTvfl2Am6-24" target="1NMRpeNYo86zTvfl2Am6-28">
          <mxGeometry relative="1" as="geometry">
            <mxPoint x="990" y="360" as="targetPoint" />
          </mxGeometry>
        </mxCell>
        <mxCell id="1NMRpeNYo86zTvfl2Am6-24" value="测试阶段" style="whiteSpace=wrap;html=1;fillColor=rgb(255, 255, 255);strokeColor=rgb(0, 0, 0);fontColor=rgb(0, 0, 0);rounded=1;" vertex="1" parent="1">
          <mxGeometry x="1180" y="330" width="120" height="60" as="geometry" />
        </mxCell>
        <mxCell id="1NMRpeNYo86zTvfl2Am6-52" value="" style="edgeStyle=orthogonalEdgeStyle;rounded=0;orthogonalLoop=1;jettySize=auto;html=1;exitX=1;exitY=0.75;exitDx=0;exitDy=0;entryX=0;entryY=0.75;entryDx=0;entryDy=0;" edge="1" parent="1" source="1NMRpeNYo86zTvfl2Am6-28" target="1NMRpeNYo86zTvfl2Am6-24">
          <mxGeometry relative="1" as="geometry">
            <mxPoint x="1130" y="360" as="targetPoint" />
          </mxGeometry>
        </mxCell>
        <mxCell id="1NMRpeNYo86zTvfl2Am6-57" value="" style="edgeStyle=orthogonalEdgeStyle;rounded=0;orthogonalLoop=1;jettySize=auto;html=1;" edge="1" parent="1" source="1NMRpeNYo86zTvfl2Am6-28" target="1NMRpeNYo86zTvfl2Am6-56">
          <mxGeometry relative="1" as="geometry" />
        </mxCell>
        <mxCell id="1NMRpeNYo86zTvfl2Am6-28" value="bug修复" style="rounded=1;whiteSpace=wrap;html=1;" vertex="1" parent="1">
          <mxGeometry x="870" y="330" width="120" height="60" as="geometry" />
        </mxCell>
        <mxCell id="1NMRpeNYo86zTvfl2Am6-33" value="" style="edgeStyle=orthogonalEdgeStyle;rounded=0;orthogonalLoop=1;jettySize=auto;html=1;" edge="1" parent="1" source="1NMRpeNYo86zTvfl2Am6-32" target="1NMRpeNYo86zTvfl2Am6-10">
          <mxGeometry relative="1" as="geometry" />
        </mxCell>
        <mxCell id="1NMRpeNYo86zTvfl2Am6-32" value="出设计稿" style="rounded=1;whiteSpace=wrap;html=1;" vertex="1" parent="1">
          <mxGeometry x="120" y="450" width="120" height="60" as="geometry" />
        </mxCell>
        <mxCell id="1NMRpeNYo86zTvfl2Am6-34" value="需求评审" style="whiteSpace=wrap;html=1;rounded=1;" vertex="1" parent="1">
          <mxGeometry x="309.5" y="640" width="120" height="60" as="geometry" />
        </mxCell>
        <mxCell id="1NMRpeNYo86zTvfl2Am6-47" value="" style="edgeStyle=orthogonalEdgeStyle;rounded=0;orthogonalLoop=1;jettySize=auto;html=1;entryX=0.75;entryY=1;entryDx=0;entryDy=0;" edge="1" parent="1" source="1NMRpeNYo86zTvfl2Am6-40" target="1NMRpeNYo86zTvfl2Am6-17">
          <mxGeometry relative="1" as="geometry">
            <mxPoint x="860" y="590" as="targetPoint" />
            <Array as="points">
              <mxPoint x="1250" y="610" />
              <mxPoint x="852" y="610" />
              <mxPoint x="852" y="590" />
              <mxPoint x="850" y="590" />
              <mxPoint x="850" y="574" />
              <mxPoint x="849" y="574" />
            </Array>
          </mxGeometry>
        </mxCell>
        <mxCell id="1NMRpeNYo86zTvfl2Am6-40" value="编写测试用例" style="rounded=1;whiteSpace=wrap;html=1;" vertex="1" parent="1">
          <mxGeometry x="1190" y="640" width="120" height="60" as="geometry" />
        </mxCell>
        <mxCell id="1NMRpeNYo86zTvfl2Am6-50" value="提bug" style="text;html=1;align=center;verticalAlign=middle;resizable=0;points=[];autosize=1;strokeColor=none;fillColor=none;" vertex="1" parent="1">
          <mxGeometry x="1118" y="320" width="50" height="20" as="geometry" />
        </mxCell>
        <mxCell id="1NMRpeNYo86zTvfl2Am6-53" value="修复bug" style="text;html=1;align=center;verticalAlign=middle;resizable=0;points=[];autosize=1;strokeColor=none;fillColor=none;" vertex="1" parent="1">
          <mxGeometry x="1020" y="380" width="60" height="20" as="geometry" />
        </mxCell>
        <mxCell id="1NMRpeNYo86zTvfl2Am6-54" value="" style="shape=flexArrow;endArrow=classic;html=1;rounded=0;exitX=1;exitY=0.5;exitDx=0;exitDy=0;entryX=0;entryY=0.5;entryDx=0;entryDy=0;" edge="1" parent="1" source="1NMRpeNYo86zTvfl2Am6-34" target="1NMRpeNYo86zTvfl2Am6-55">
          <mxGeometry width="50" height="50" relative="1" as="geometry">
            <mxPoint x="880" y="640" as="sourcePoint" />
            <mxPoint x="520" y="670" as="targetPoint" />
          </mxGeometry>
        </mxCell>
        <mxCell id="1NMRpeNYo86zTvfl2Am6-55" value="" style="fontStyle=0;dashed=1;fillColor=none;" vertex="1" parent="1">
          <mxGeometry x="570" y="620" width="770" height="100" as="geometry" />
        </mxCell>
        <mxCell id="1NMRpeNYo86zTvfl2Am6-56" value="验收上线" style="whiteSpace=wrap;html=1;rounded=1;" vertex="1" parent="1">
          <mxGeometry x="590" y="330" width="120" height="60" as="geometry" />
        </mxCell>
        <mxCell id="1NMRpeNYo86zTvfl2Am6-58" value="" style="shape=flexArrow;endArrow=classic;html=1;rounded=0;entryX=0.096;entryY=-0.02;entryDx=0;entryDy=0;entryPerimeter=0;exitX=0.442;exitY=1;exitDx=0;exitDy=0;exitPerimeter=0;" edge="1" parent="1" source="1NMRpeNYo86zTvfl2Am6-56" target="1NMRpeNYo86zTvfl2Am6-55">
          <mxGeometry width="50" height="50" relative="1" as="geometry">
            <mxPoint x="650" y="390" as="sourcePoint" />
            <mxPoint x="790" y="440" as="targetPoint" />
          </mxGeometry>
        </mxCell>
        <mxCell id="1NMRpeNYo86zTvfl2Am6-59" value="提供测试用例" style="text;html=1;align=center;verticalAlign=middle;resizable=0;points=[];autosize=1;strokeColor=none;fillColor=none;" vertex="1" parent="1">
          <mxGeometry x="1110" y="590" width="90" height="20" as="geometry" />
        </mxCell>
        <mxCell id="1NMRpeNYo86zTvfl2Am6-60" value="" style="fontStyle=0;dashed=1;fillColor=none;" vertex="1" parent="1">
          <mxGeometry x="560" y="30" width="900" height="910" as="geometry" />
        </mxCell>
        <mxCell id="1NMRpeNYo86zTvfl2Am6-64" value="班车&#xa;&#xa;上线部分上车" style="fontStyle=0;dashed=1;fillColor=none;" vertex="1" parent="1">
          <mxGeometry x="1630" y="195" width="140" height="550" as="geometry" />
        </mxCell>
        <mxCell id="1NMRpeNYo86zTvfl2Am6-65" value="" style="verticalLabelPosition=bottom;verticalAlign=top;html=1;strokeWidth=2;shape=mxgraph.arrows2.arrow;dy=0.6;dx=40;notch=0;fillColor=none;" vertex="1" parent="1">
          <mxGeometry x="1460" y="450" width="170" height="40" as="geometry" />
        </mxCell>
        <mxCell id="1NMRpeNYo86zTvfl2Am6-66" value="&lt;b&gt;&lt;font style=&quot;font-size: 18px&quot;&gt;循环往复&lt;/font&gt;&lt;/b&gt;" style="verticalLabelPosition=bottom;html=1;verticalAlign=top;strokeWidth=2;shape=mxgraph.lean_mapping.physical_pull;pointerEvents=1;fillColor=none;direction=west;rotation=30;" vertex="1" parent="1">
          <mxGeometry x="568.33" y="120.77" width="802.43" height="796.4" as="geometry" />
        </mxCell>
      </root>
    </mxGraphModel>
  </diagram>
</mxfile>
